<mxfile host="app.diagrams.net" modified="2020-08-11T04:22:12.416Z" agent="5.0 (Macintosh; Intel Mac OS X 10_15_6) AppleWebKit/537.36 (KHTML, like Gecko) Chrome/84.0.4147.105 Safari/537.36" etag="wnqQdmJrAPYCdFSTzaOc" version="13.6.2" type="github">
  <diagram id="TDV_Een_4YGRv3GDYZ4N" name="Page-1">
    <mxGraphModel dx="1123" dy="630" grid="1" gridSize="10" guides="1" tooltips="1" connect="1" arrows="1" fold="1" page="1" pageScale="1" pageWidth="2336" pageHeight="1654" math="0" shadow="0">
      <root>
        <mxCell id="0" />
        <mxCell id="1" parent="0" />
        <mxCell id="IfnnKN8xethrWtr-zDT9-2" value="UIRespondes" style="rounded=0;whiteSpace=wrap;html=1;fontSize=20;fontStyle=1;fillColor=#f8cecc;strokeColor=#b85450;" vertex="1" parent="1">
          <mxGeometry x="1040" y="70" width="170" height="70" as="geometry" />
        </mxCell>
        <mxCell id="IfnnKN8xethrWtr-zDT9-52" style="edgeStyle=orthogonalEdgeStyle;rounded=0;orthogonalLoop=1;jettySize=auto;html=1;exitX=0.5;exitY=0;exitDx=0;exitDy=0;entryX=0.5;entryY=1;entryDx=0;entryDy=0;" edge="1" parent="1" source="IfnnKN8xethrWtr-zDT9-3" target="IfnnKN8xethrWtr-zDT9-6">
          <mxGeometry relative="1" as="geometry">
            <mxPoint x="308.1428571428571" y="330" as="targetPoint" />
          </mxGeometry>
        </mxCell>
        <mxCell id="IfnnKN8xethrWtr-zDT9-3" value="&lt;p class=&quot;p1&quot; style=&quot;margin: 0px ; font-stretch: normal ; line-height: normal ; font-family: &amp;quot;menlo&amp;quot;&quot;&gt;&lt;span class=&quot;s1&quot;&gt;&lt;span&gt;UIActivityIndicatorView&lt;/span&gt;&lt;/span&gt;&lt;/p&gt;&lt;p class=&quot;p1&quot; style=&quot;margin: 0px ; font-stretch: normal ; line-height: normal ; font-family: &amp;quot;menlo&amp;quot;&quot;&gt;&lt;span class=&quot;s1&quot;&gt;&lt;span&gt;UIImageView&lt;/span&gt;&lt;/span&gt;&lt;/p&gt;&lt;p class=&quot;p1&quot; style=&quot;margin: 0px ; font-stretch: normal ; line-height: normal ; font-family: &amp;quot;menlo&amp;quot;&quot;&gt;&lt;span class=&quot;s1&quot;&gt;&lt;span&gt;UIInputView&lt;/span&gt;&lt;/span&gt;&lt;/p&gt;&lt;p class=&quot;p1&quot; style=&quot;margin: 0px ; font-stretch: normal ; line-height: normal ; font-family: &amp;quot;menlo&amp;quot;&quot;&gt;&lt;span class=&quot;s1&quot;&gt;&lt;span&gt;UILabel&lt;/span&gt;&lt;/span&gt;&lt;/p&gt;&lt;p class=&quot;p1&quot; style=&quot;margin: 0px ; font-stretch: normal ; line-height: normal ; font-family: &amp;quot;menlo&amp;quot;&quot;&gt;&lt;span class=&quot;s1&quot;&gt;&lt;span&gt;UINavigationBar&lt;/span&gt;&lt;/span&gt;&lt;/p&gt;&lt;p class=&quot;p1&quot; style=&quot;margin: 0px ; font-stretch: normal ; line-height: normal ; font-family: &amp;quot;menlo&amp;quot;&quot;&gt;&lt;span class=&quot;s1&quot;&gt;&lt;span&gt;UIPickerView&lt;/span&gt;&lt;/span&gt;&lt;/p&gt;&lt;p class=&quot;p1&quot; style=&quot;margin: 0px ; font-stretch: normal ; line-height: normal ; font-family: &amp;quot;menlo&amp;quot;&quot;&gt;&lt;span class=&quot;s1&quot;&gt;&lt;span&gt;UIPopoverBackgroundView&lt;/span&gt;&lt;/span&gt;&lt;/p&gt;&lt;p class=&quot;p1&quot; style=&quot;margin: 0px ; font-stretch: normal ; line-height: normal ; font-family: &amp;quot;menlo&amp;quot;&quot;&gt;&lt;span class=&quot;s1&quot;&gt;&lt;span&gt;UIProgressView&lt;/span&gt;&lt;/span&gt;&lt;/p&gt;&lt;p class=&quot;p1&quot; style=&quot;margin: 0px ; font-stretch: normal ; line-height: normal ; font-family: &amp;quot;menlo&amp;quot;&quot;&gt;&lt;span&gt;UISearchBar&lt;/span&gt;&lt;/p&gt;&lt;p class=&quot;p1&quot; style=&quot;margin: 0px ; font-stretch: normal ; line-height: normal ; font-family: &amp;quot;menlo&amp;quot;&quot;&gt;&lt;span class=&quot;s1&quot;&gt;&lt;span&gt;UIStackView&lt;/span&gt;&lt;/span&gt;&lt;/p&gt;&lt;p class=&quot;p1&quot; style=&quot;margin: 0px ; font-stretch: normal ; line-height: normal ; font-family: &amp;quot;menlo&amp;quot;&quot;&gt;&lt;span class=&quot;s1&quot;&gt;&lt;span&gt;UITabBar&lt;/span&gt;&lt;/span&gt;&lt;/p&gt;&lt;p class=&quot;p1&quot; style=&quot;margin: 0px ; font-stretch: normal ; line-height: normal ; font-family: &amp;quot;menlo&amp;quot;&quot;&gt;&lt;span class=&quot;s1&quot;&gt;&lt;span&gt;UITableViewCell&lt;/span&gt;&lt;/span&gt;&lt;/p&gt;&lt;p class=&quot;p1&quot; style=&quot;margin: 0px ; font-stretch: normal ; line-height: normal ; font-family: &amp;quot;menlo&amp;quot;&quot;&gt;&lt;span class=&quot;s1&quot;&gt;&lt;span&gt;UITableViewHeaderFooterView&lt;/span&gt;&lt;/span&gt;&lt;/p&gt;&lt;p class=&quot;p1&quot; style=&quot;margin: 0px ; font-stretch: normal ; line-height: normal ; font-family: &amp;quot;menlo&amp;quot;&quot;&gt;&lt;span class=&quot;s1&quot;&gt;&lt;span&gt;UIToolbar&lt;/span&gt;&lt;/span&gt;&lt;/p&gt;&lt;p class=&quot;p1&quot; style=&quot;margin: 0px ; font-stretch: normal ; line-height: normal ; font-family: &amp;quot;menlo&amp;quot;&quot;&gt;&lt;span class=&quot;s1&quot;&gt;&lt;span&gt;UIVisualEffectView&lt;/span&gt;&lt;/span&gt;&lt;/p&gt;&lt;p class=&quot;p1&quot; style=&quot;margin: 0px ; font-stretch: normal ; line-height: normal ; font-family: &amp;quot;menlo&amp;quot;&quot;&gt;&lt;span class=&quot;s1&quot;&gt;&lt;span&gt;UIWindow&lt;/span&gt;&lt;/span&gt;&lt;/p&gt;" style="rounded=0;whiteSpace=wrap;html=1;align=center;fontStyle=1;fillColor=#fff2cc;strokeColor=#d6b656;" vertex="1" parent="1">
          <mxGeometry x="366" y="470" width="200" height="310" as="geometry" />
        </mxCell>
        <mxCell id="IfnnKN8xethrWtr-zDT9-55" style="edgeStyle=orthogonalEdgeStyle;rounded=0;orthogonalLoop=1;jettySize=auto;html=1;exitX=0.5;exitY=0;exitDx=0;exitDy=0;entryX=0;entryY=0.5;entryDx=0;entryDy=0;" edge="1" parent="1" source="IfnnKN8xethrWtr-zDT9-6" target="IfnnKN8xethrWtr-zDT9-2">
          <mxGeometry relative="1" as="geometry" />
        </mxCell>
        <mxCell id="IfnnKN8xethrWtr-zDT9-6" value="&lt;font style=&quot;font-size: 18px&quot;&gt;UIView&lt;/font&gt;" style="rounded=0;whiteSpace=wrap;html=1;align=center;fontStyle=1;fontSize=18;fillColor=#dae8fc;strokeColor=#6c8ebf;" vertex="1" parent="1">
          <mxGeometry x="490" y="250" width="120" height="60" as="geometry" />
        </mxCell>
        <mxCell id="IfnnKN8xethrWtr-zDT9-53" style="edgeStyle=orthogonalEdgeStyle;rounded=0;orthogonalLoop=1;jettySize=auto;html=1;exitX=0.5;exitY=0;exitDx=0;exitDy=0;entryX=1;entryY=0.5;entryDx=0;entryDy=0;" edge="1" parent="1" source="IfnnKN8xethrWtr-zDT9-9" target="IfnnKN8xethrWtr-zDT9-6">
          <mxGeometry relative="1" as="geometry" />
        </mxCell>
        <mxCell id="IfnnKN8xethrWtr-zDT9-9" value="UIControl" style="rounded=0;whiteSpace=wrap;html=1;align=center;fillColor=#fff2cc;strokeColor=#d6b656;fontStyle=1" vertex="1" parent="1">
          <mxGeometry x="688" y="530" width="120" height="60" as="geometry" />
        </mxCell>
        <mxCell id="IfnnKN8xethrWtr-zDT9-54" style="edgeStyle=orthogonalEdgeStyle;rounded=0;orthogonalLoop=1;jettySize=auto;html=1;exitX=0.5;exitY=0;exitDx=0;exitDy=0;entryX=0.25;entryY=1;entryDx=0;entryDy=0;" edge="1" parent="1" source="IfnnKN8xethrWtr-zDT9-11" target="IfnnKN8xethrWtr-zDT9-9">
          <mxGeometry relative="1" as="geometry" />
        </mxCell>
        <mxCell id="IfnnKN8xethrWtr-zDT9-11" value="&lt;p class=&quot;p1&quot; style=&quot;margin: 0px ; font-stretch: normal ; line-height: normal ; font-family: &amp;#34;menlo&amp;#34;&quot;&gt;&lt;span class=&quot;s1&quot;&gt;&lt;b&gt;UIButton&lt;/b&gt;&lt;/span&gt;&lt;/p&gt;&lt;p class=&quot;p1&quot; style=&quot;margin: 0px ; font-stretch: normal ; line-height: normal ; font-family: &amp;#34;menlo&amp;#34;&quot;&gt;&lt;span class=&quot;s1&quot;&gt;&lt;b&gt;UIDatePicker&lt;/b&gt;&lt;/span&gt;&lt;/p&gt;&lt;p class=&quot;p1&quot; style=&quot;margin: 0px ; font-stretch: normal ; line-height: normal ; font-family: &amp;#34;menlo&amp;#34;&quot;&gt;&lt;span class=&quot;s1&quot;&gt;&lt;b&gt;UIPageControl&lt;/b&gt;&lt;/span&gt;&lt;/p&gt;&lt;p class=&quot;p1&quot; style=&quot;margin: 0px ; font-stretch: normal ; line-height: normal ; font-family: &amp;#34;menlo&amp;#34;&quot;&gt;&lt;span class=&quot;s1&quot;&gt;&lt;b&gt;UIRefreshControl&lt;/b&gt;&lt;/span&gt;&lt;/p&gt;&lt;p class=&quot;p1&quot; style=&quot;margin: 0px ; font-stretch: normal ; line-height: normal ; font-family: &amp;#34;menlo&amp;#34;&quot;&gt;&lt;span class=&quot;s1&quot;&gt;&lt;b&gt;UISegmentedControl&lt;/b&gt;&lt;/span&gt;&lt;/p&gt;&lt;p class=&quot;p1&quot; style=&quot;margin: 0px ; font-stretch: normal ; line-height: normal ; font-family: &amp;#34;menlo&amp;#34;&quot;&gt;&lt;span class=&quot;s1&quot;&gt;&lt;b&gt;UISlider&lt;/b&gt;&lt;/span&gt;&lt;/p&gt;&lt;p class=&quot;p1&quot; style=&quot;margin: 0px ; font-stretch: normal ; line-height: normal ; font-family: &amp;#34;menlo&amp;#34;&quot;&gt;&lt;span class=&quot;s1&quot;&gt;&lt;b&gt;UIStepper&lt;/b&gt;&lt;/span&gt;&lt;/p&gt;&lt;p class=&quot;p1&quot; style=&quot;margin: 0px ; font-stretch: normal ; line-height: normal ; font-family: &amp;#34;menlo&amp;#34;&quot;&gt;&lt;span class=&quot;s1&quot;&gt;&lt;b&gt;UISwitch&lt;/b&gt;&lt;/span&gt;&lt;/p&gt;" style="rounded=0;whiteSpace=wrap;html=1;align=center;fillColor=#d5e8d4;strokeColor=#82b366;" vertex="1" parent="1">
          <mxGeometry x="538" y="857" width="140" height="140" as="geometry" />
        </mxCell>
        <mxCell id="IfnnKN8xethrWtr-zDT9-51" style="edgeStyle=orthogonalEdgeStyle;rounded=0;orthogonalLoop=1;jettySize=auto;html=1;exitX=0.5;exitY=0;exitDx=0;exitDy=0;entryX=0;entryY=0.5;entryDx=0;entryDy=0;" edge="1" parent="1" source="IfnnKN8xethrWtr-zDT9-14" target="IfnnKN8xethrWtr-zDT9-6">
          <mxGeometry relative="1" as="geometry" />
        </mxCell>
        <mxCell id="IfnnKN8xethrWtr-zDT9-14" value="UIScrollView" style="rounded=0;whiteSpace=wrap;html=1;align=center;fontStyle=1;fillColor=#fff2cc;strokeColor=#d6b656;" vertex="1" parent="1">
          <mxGeometry x="230" y="480" width="120" height="60" as="geometry" />
        </mxCell>
        <mxCell id="IfnnKN8xethrWtr-zDT9-49" style="edgeStyle=orthogonalEdgeStyle;rounded=0;orthogonalLoop=1;jettySize=auto;html=1;exitX=0.5;exitY=0;exitDx=0;exitDy=0;entryX=0.5;entryY=1;entryDx=0;entryDy=0;" edge="1" parent="1" source="IfnnKN8xethrWtr-zDT9-16" target="IfnnKN8xethrWtr-zDT9-14">
          <mxGeometry relative="1" as="geometry" />
        </mxCell>
        <mxCell id="IfnnKN8xethrWtr-zDT9-16" value="&lt;p class=&quot;p1&quot; style=&quot;margin: 0px ; font-stretch: normal ; line-height: normal ; font-family: &amp;#34;menlo&amp;#34;&quot;&gt;&lt;span class=&quot;s1&quot;&gt;&lt;b&gt;UICollectionView&lt;/b&gt;&lt;/span&gt;&lt;/p&gt;&lt;p class=&quot;p1&quot; style=&quot;margin: 0px ; font-stretch: normal ; line-height: normal ; font-family: &amp;#34;menlo&amp;#34;&quot;&gt;&lt;span class=&quot;s1&quot;&gt;&lt;b&gt;UITableView&lt;/b&gt;&lt;/span&gt;&lt;/p&gt;&lt;p class=&quot;p1&quot; style=&quot;margin: 0px ; font-stretch: normal ; line-height: normal ; font-family: &amp;#34;menlo&amp;#34;&quot;&gt;&lt;span class=&quot;s1&quot;&gt;&lt;b&gt;UITextView&lt;/b&gt;&lt;/span&gt;&lt;/p&gt;" style="rounded=0;whiteSpace=wrap;html=1;align=center;fillColor=#d5e8d4;strokeColor=#82b366;" vertex="1" parent="1">
          <mxGeometry x="208" y="670" width="120" height="60" as="geometry" />
        </mxCell>
        <mxCell id="IfnnKN8xethrWtr-zDT9-59" style="edgeStyle=orthogonalEdgeStyle;rounded=0;orthogonalLoop=1;jettySize=auto;html=1;exitX=0.5;exitY=0;exitDx=0;exitDy=0;entryX=0.5;entryY=1;entryDx=0;entryDy=0;" edge="1" parent="1" source="IfnnKN8xethrWtr-zDT9-24" target="IfnnKN8xethrWtr-zDT9-2">
          <mxGeometry relative="1" as="geometry" />
        </mxCell>
        <mxCell id="IfnnKN8xethrWtr-zDT9-24" value="UIViewController" style="rounded=0;whiteSpace=wrap;html=1;align=center;fontSize=18;fontStyle=1;fillColor=#dae8fc;strokeColor=#6c8ebf;" vertex="1" parent="1">
          <mxGeometry x="1060" y="270" width="160" height="60" as="geometry" />
        </mxCell>
        <mxCell id="IfnnKN8xethrWtr-zDT9-58" style="edgeStyle=orthogonalEdgeStyle;rounded=0;orthogonalLoop=1;jettySize=auto;html=1;exitX=0.5;exitY=0;exitDx=0;exitDy=0;entryX=0.25;entryY=1;entryDx=0;entryDy=0;" edge="1" parent="1" source="IfnnKN8xethrWtr-zDT9-26" target="IfnnKN8xethrWtr-zDT9-24">
          <mxGeometry relative="1" as="geometry" />
        </mxCell>
        <mxCell id="IfnnKN8xethrWtr-zDT9-26" value="&lt;p class=&quot;p1&quot; style=&quot;margin: 0px ; font-stretch: normal ; line-height: normal ; font-family: &amp;#34;menlo&amp;#34;&quot;&gt;&lt;span class=&quot;s1&quot;&gt;&lt;b&gt;UIActivityViewController&lt;/b&gt;&lt;/span&gt;&lt;/p&gt;&lt;p class=&quot;p1&quot; style=&quot;margin: 0px ; font-stretch: normal ; line-height: normal ; font-family: &amp;#34;menlo&amp;#34;&quot;&gt;&lt;span class=&quot;s1&quot;&gt;&lt;b&gt;UIAlertController&lt;/b&gt;&lt;/span&gt;&lt;/p&gt;&lt;p class=&quot;p1&quot; style=&quot;margin: 0px ; font-stretch: normal ; line-height: normal ; font-family: &amp;#34;menlo&amp;#34;&quot;&gt;&lt;span class=&quot;s1&quot;&gt;&lt;b&gt;UICloudSharingController&lt;/b&gt;&lt;/span&gt;&lt;/p&gt;&lt;p class=&quot;p1&quot; style=&quot;margin: 0px ; font-stretch: normal ; line-height: normal ; font-family: &amp;#34;menlo&amp;#34;&quot;&gt;&lt;span class=&quot;s1&quot;&gt;&lt;b&gt;UICollectionViewController&lt;/b&gt;&lt;/span&gt;&lt;/p&gt;&lt;p class=&quot;p1&quot; style=&quot;margin: 0px ; font-stretch: normal ; line-height: normal ; font-family: &amp;#34;menlo&amp;#34;&quot;&gt;&lt;span class=&quot;s1&quot;&gt;&lt;b&gt;UIDocumentBrowserViewController&lt;/b&gt;&lt;/span&gt;&lt;/p&gt;&lt;p class=&quot;p1&quot; style=&quot;margin: 0px ; font-stretch: normal ; line-height: normal ; font-family: &amp;#34;menlo&amp;#34;&quot;&gt;&lt;span class=&quot;s1&quot;&gt;&lt;b&gt;UIDocumentPickerExtensionViewController&lt;/b&gt;&lt;/span&gt;&lt;/p&gt;&lt;p class=&quot;p1&quot; style=&quot;margin: 0px ; font-stretch: normal ; line-height: normal ; font-family: &amp;#34;menlo&amp;#34;&quot;&gt;&lt;span class=&quot;s1&quot;&gt;&lt;b&gt;UIDocumentPickerViewController&lt;/b&gt;&lt;/span&gt;&lt;/p&gt;&lt;p class=&quot;p1&quot; style=&quot;margin: 0px ; font-stretch: normal ; line-height: normal ; font-family: &amp;#34;menlo&amp;#34;&quot;&gt;&lt;span class=&quot;s1&quot;&gt;&lt;b&gt;UIFontPickerViewController&lt;/b&gt;&lt;/span&gt;&lt;/p&gt;&lt;p class=&quot;p1&quot; style=&quot;margin: 0px ; font-stretch: normal ; line-height: normal ; font-family: &amp;#34;menlo&amp;#34;&quot;&gt;&lt;span class=&quot;s1&quot;&gt;&lt;b&gt;UIInputViewController&lt;/b&gt;&lt;/span&gt;&lt;/p&gt;&lt;p class=&quot;p1&quot; style=&quot;margin: 0px ; font-stretch: normal ; line-height: normal ; font-family: &amp;#34;menlo&amp;#34;&quot;&gt;&lt;span class=&quot;s1&quot;&gt;&lt;b&gt;UIPageViewController&lt;/b&gt;&lt;/span&gt;&lt;/p&gt;&lt;p class=&quot;p1&quot; style=&quot;margin: 0px ; font-stretch: normal ; line-height: normal ; font-family: &amp;#34;menlo&amp;#34;&quot;&gt;&lt;span class=&quot;s1&quot;&gt;&lt;b&gt;UIReferenceLibraryViewController&lt;/b&gt;&lt;/span&gt;&lt;/p&gt;&lt;p class=&quot;p1&quot; style=&quot;margin: 0px ; font-stretch: normal ; line-height: normal ; font-family: &amp;#34;menlo&amp;#34;&quot;&gt;&lt;span class=&quot;s1&quot;&gt;&lt;b&gt;UISearchContainerViewController&lt;/b&gt;&lt;/span&gt;&lt;/p&gt;&lt;p class=&quot;p1&quot; style=&quot;margin: 0px ; font-stretch: normal ; line-height: normal ; font-family: &amp;#34;menlo&amp;#34;&quot;&gt;&lt;span class=&quot;s1&quot;&gt;&lt;b&gt;UISearchController&lt;/b&gt;&lt;/span&gt;&lt;/p&gt;&lt;p class=&quot;p1&quot; style=&quot;margin: 0px ; font-stretch: normal ; line-height: normal ; font-family: &amp;#34;menlo&amp;#34;&quot;&gt;&lt;span class=&quot;s1&quot;&gt;&lt;b&gt;UISplitViewController&lt;/b&gt;&lt;/span&gt;&lt;/p&gt;&lt;p class=&quot;p1&quot; style=&quot;margin: 0px ; font-stretch: normal ; line-height: normal ; font-family: &amp;#34;menlo&amp;#34;&quot;&gt;&lt;span class=&quot;s1&quot;&gt;&lt;b&gt;UITabBarController&lt;/b&gt;&lt;/span&gt;&lt;/p&gt;&lt;p class=&quot;p1&quot; style=&quot;margin: 0px ; font-stretch: normal ; line-height: normal ; font-family: &amp;#34;menlo&amp;#34;&quot;&gt;&lt;span class=&quot;s1&quot;&gt;&lt;b&gt;UITableViewController&lt;/b&gt;&lt;/span&gt;&lt;/p&gt;" style="rounded=0;whiteSpace=wrap;html=1;align=center;fillColor=#fff2cc;strokeColor=#d6b656;" vertex="1" parent="1">
          <mxGeometry x="920" y="400" width="300" height="260" as="geometry" />
        </mxCell>
        <mxCell id="IfnnKN8xethrWtr-zDT9-56" style="edgeStyle=orthogonalEdgeStyle;rounded=0;orthogonalLoop=1;jettySize=auto;html=1;exitX=0.5;exitY=0;exitDx=0;exitDy=0;entryX=0.5;entryY=1;entryDx=0;entryDy=0;" edge="1" parent="1" source="IfnnKN8xethrWtr-zDT9-28" target="IfnnKN8xethrWtr-zDT9-29">
          <mxGeometry relative="1" as="geometry" />
        </mxCell>
        <mxCell id="IfnnKN8xethrWtr-zDT9-28" value="&lt;p class=&quot;p2&quot; style=&quot;margin: 0px ; font-stretch: normal ; line-height: normal ; font-family: &amp;#34;menlo&amp;#34;&quot;&gt;&lt;span style=&quot;background-color: rgb(255 , 255 , 255)&quot;&gt;UIImagePickerController&lt;/span&gt;&lt;/p&gt;&lt;p class=&quot;p2&quot; style=&quot;margin: 0px ; font-stretch: normal ; line-height: normal ; font-family: &amp;#34;menlo&amp;#34;&quot;&gt;&lt;span style=&quot;background-color: rgb(255 , 255 , 255)&quot;&gt;UIVideoEditorController&lt;/span&gt;&lt;/p&gt;" style="rounded=0;whiteSpace=wrap;html=1;align=center;" vertex="1" parent="1">
          <mxGeometry x="1248" y="520" width="220" height="50" as="geometry" />
        </mxCell>
        <mxCell id="IfnnKN8xethrWtr-zDT9-57" style="edgeStyle=orthogonalEdgeStyle;rounded=0;orthogonalLoop=1;jettySize=auto;html=1;exitX=0.5;exitY=0;exitDx=0;exitDy=0;entryX=0.75;entryY=1;entryDx=0;entryDy=0;" edge="1" parent="1" source="IfnnKN8xethrWtr-zDT9-29" target="IfnnKN8xethrWtr-zDT9-24">
          <mxGeometry relative="1" as="geometry" />
        </mxCell>
        <mxCell id="IfnnKN8xethrWtr-zDT9-29" value="&lt;span style=&quot;font-family: &amp;#34;menlo&amp;#34; ; background-color: rgb(255 , 242 , 204)&quot;&gt;UINavigationController&lt;/span&gt;" style="rounded=0;whiteSpace=wrap;html=1;align=center;fillColor=#fff2cc;strokeColor=#d6b656;" vertex="1" parent="1">
          <mxGeometry x="1268" y="400" width="180" height="60" as="geometry" />
        </mxCell>
        <mxCell id="IfnnKN8xethrWtr-zDT9-82" style="edgeStyle=orthogonalEdgeStyle;rounded=0;orthogonalLoop=1;jettySize=auto;html=1;exitX=0;exitY=0.5;exitDx=0;exitDy=0;entryX=1;entryY=0.25;entryDx=0;entryDy=0;" edge="1" parent="1" source="IfnnKN8xethrWtr-zDT9-42" target="IfnnKN8xethrWtr-zDT9-2">
          <mxGeometry relative="1" as="geometry" />
        </mxCell>
        <mxCell id="IfnnKN8xethrWtr-zDT9-42" value="&lt;p class=&quot;p1&quot; style=&quot;margin: 0px; font-stretch: normal; line-height: normal; font-family: menlo; font-size: 18px;&quot;&gt;&lt;span class=&quot;s1&quot; style=&quot;font-size: 18px;&quot;&gt;&lt;span style=&quot;font-size: 18px;&quot;&gt;UIAccessibilityElement&lt;/span&gt;&lt;/span&gt;&lt;/p&gt;&lt;p class=&quot;p1&quot; style=&quot;margin: 0px; font-stretch: normal; line-height: normal; font-family: menlo; font-size: 18px;&quot;&gt;&lt;span class=&quot;s1&quot; style=&quot;font-size: 18px;&quot;&gt;&lt;span style=&quot;font-size: 18px;&quot;&gt;UIApplication&lt;/span&gt;&lt;span style=&quot;font-size: 18px;&quot;&gt;&lt;br style=&quot;font-size: 18px;&quot;&gt;&lt;/span&gt;&lt;/span&gt;&lt;/p&gt;" style="rounded=0;whiteSpace=wrap;html=1;align=center;fontSize=18;fontStyle=1;fillColor=#dae8fc;strokeColor=#6c8ebf;" vertex="1" parent="1">
          <mxGeometry x="1490" y="150" width="310" height="80" as="geometry" />
        </mxCell>
        <mxCell id="IfnnKN8xethrWtr-zDT9-63" style="edgeStyle=orthogonalEdgeStyle;rounded=0;orthogonalLoop=1;jettySize=auto;html=1;exitX=0;exitY=0.5;exitDx=0;exitDy=0;entryX=1;entryY=0.75;entryDx=0;entryDy=0;" edge="1" parent="1" source="IfnnKN8xethrWtr-zDT9-45" target="IfnnKN8xethrWtr-zDT9-2">
          <mxGeometry relative="1" as="geometry" />
        </mxCell>
        <mxCell id="IfnnKN8xethrWtr-zDT9-45" value="&lt;p class=&quot;p1&quot; style=&quot;margin: 0px ; font-stretch: normal ; line-height: normal ; font-family: &amp;#34;menlo&amp;#34;&quot;&gt;&lt;span class=&quot;s1&quot;&gt;&lt;b&gt;&lt;font style=&quot;font-size: 18px&quot;&gt;UIScene&lt;/font&gt;&lt;/b&gt;&lt;/span&gt;&lt;/p&gt;" style="rounded=0;whiteSpace=wrap;html=1;align=center;fillColor=#dae8fc;strokeColor=#6c8ebf;" vertex="1" parent="1">
          <mxGeometry x="1410" y="260" width="120" height="60" as="geometry" />
        </mxCell>
        <mxCell id="IfnnKN8xethrWtr-zDT9-62" style="edgeStyle=orthogonalEdgeStyle;rounded=0;orthogonalLoop=1;jettySize=auto;html=1;exitX=0;exitY=0.5;exitDx=0;exitDy=0;entryX=1;entryY=0.5;entryDx=0;entryDy=0;" edge="1" parent="1" source="IfnnKN8xethrWtr-zDT9-47" target="IfnnKN8xethrWtr-zDT9-45">
          <mxGeometry relative="1" as="geometry" />
        </mxCell>
        <mxCell id="IfnnKN8xethrWtr-zDT9-47" value="&lt;p class=&quot;p1&quot; style=&quot;margin: 0px ; font-stretch: normal ; line-height: normal ; font-family: &amp;#34;menlo&amp;#34;&quot;&gt;&lt;span class=&quot;s1&quot;&gt;&lt;b&gt;UIWindowScene&lt;/b&gt;&lt;/span&gt;&lt;/p&gt;" style="rounded=0;whiteSpace=wrap;html=1;align=center;fillColor=#fff2cc;strokeColor=#d6b656;" vertex="1" parent="1">
          <mxGeometry x="1570" y="260" width="120" height="60" as="geometry" />
        </mxCell>
        <mxCell id="IfnnKN8xethrWtr-zDT9-80" style="edgeStyle=orthogonalEdgeStyle;rounded=0;orthogonalLoop=1;jettySize=auto;html=1;exitX=0.5;exitY=0;exitDx=0;exitDy=0;entryX=0.75;entryY=1;entryDx=0;entryDy=0;" edge="1" parent="1" source="IfnnKN8xethrWtr-zDT9-67" target="IfnnKN8xethrWtr-zDT9-9">
          <mxGeometry relative="1" as="geometry" />
        </mxCell>
        <mxCell id="IfnnKN8xethrWtr-zDT9-67" value="&lt;b style=&quot;font-family: &amp;#34;menlo&amp;#34;&quot;&gt;UITextField&lt;/b&gt;" style="rounded=0;whiteSpace=wrap;html=1;align=center;fillColor=#d5e8d4;strokeColor=#82b366;" vertex="1" parent="1">
          <mxGeometry x="768" y="860" width="120" height="60" as="geometry" />
        </mxCell>
        <mxCell id="IfnnKN8xethrWtr-zDT9-70" style="edgeStyle=orthogonalEdgeStyle;rounded=0;orthogonalLoop=1;jettySize=auto;html=1;exitX=0.5;exitY=0;exitDx=0;exitDy=0;entryX=0.5;entryY=1;entryDx=0;entryDy=0;" edge="1" parent="1" source="IfnnKN8xethrWtr-zDT9-69" target="IfnnKN8xethrWtr-zDT9-67">
          <mxGeometry relative="1" as="geometry" />
        </mxCell>
        <mxCell id="IfnnKN8xethrWtr-zDT9-69" value="&lt;p class=&quot;p1&quot; style=&quot;margin: 0px ; font-stretch: normal ; line-height: normal ; font-family: &amp;#34;menlo&amp;#34;&quot;&gt;&lt;span class=&quot;s1&quot;&gt;&lt;b&gt;UISearchTextField&lt;/b&gt;&lt;/span&gt;&lt;/p&gt;" style="rounded=0;whiteSpace=wrap;html=1;align=center;" vertex="1" parent="1">
          <mxGeometry x="768" y="980" width="140" height="50" as="geometry" />
        </mxCell>
        <mxCell id="IfnnKN8xethrWtr-zDT9-77" style="edgeStyle=orthogonalEdgeStyle;rounded=0;orthogonalLoop=1;jettySize=auto;html=1;exitX=0.5;exitY=0;exitDx=0;exitDy=0;entryX=0;entryY=0.25;entryDx=0;entryDy=0;" edge="1" parent="1" source="IfnnKN8xethrWtr-zDT9-71" target="IfnnKN8xethrWtr-zDT9-6">
          <mxGeometry relative="1" as="geometry" />
        </mxCell>
        <mxCell id="IfnnKN8xethrWtr-zDT9-71" value="&lt;b style=&quot;font-family: &amp;#34;menlo&amp;#34;&quot;&gt;UICollectionReusableView&lt;/b&gt;" style="rounded=0;whiteSpace=wrap;html=1;align=center;fillColor=#fff2cc;strokeColor=#d6b656;" vertex="1" parent="1">
          <mxGeometry x="2" y="430" width="200" height="90" as="geometry" />
        </mxCell>
        <mxCell id="IfnnKN8xethrWtr-zDT9-79" style="edgeStyle=orthogonalEdgeStyle;rounded=0;orthogonalLoop=1;jettySize=auto;html=1;exitX=0.5;exitY=0;exitDx=0;exitDy=0;entryX=0.5;entryY=1;entryDx=0;entryDy=0;" edge="1" parent="1" source="IfnnKN8xethrWtr-zDT9-73" target="IfnnKN8xethrWtr-zDT9-71">
          <mxGeometry relative="1" as="geometry" />
        </mxCell>
        <mxCell id="IfnnKN8xethrWtr-zDT9-73" value="&lt;p class=&quot;p1&quot; style=&quot;margin: 0px ; font-stretch: normal ; line-height: normal ; font-family: &amp;#34;menlo&amp;#34;&quot;&gt;&lt;span class=&quot;s1&quot;&gt;&lt;b&gt;UICollectionViewCell&lt;/b&gt;&lt;/span&gt;&lt;/p&gt;" style="rounded=0;whiteSpace=wrap;html=1;align=center;fillColor=#d5e8d4;strokeColor=#82b366;" vertex="1" parent="1">
          <mxGeometry x="10" y="590" width="170" height="70" as="geometry" />
        </mxCell>
      </root>
    </mxGraphModel>
  </diagram>
</mxfile>
